<svg xmlns="http://www.w3.org/2000/svg" viewBox="0 0 341.03 82.26"><title>PJ Link</title><g id="Layer_2" data-name="Layer 2"><g id="Trace"><g id="P"><g id="M"><polygon id="M-2" data-name="M" points="329.29 13.4 329.29 0.89 331.36 0.89 335.13 10.63 338.99 0.89 341.03 0.89 341.03 13.4 339.37 13.4 339.37 4.08 335.96 13.24 334.38 13.25 331.04 4.05 331.04 13.4 329.29 13.4" style="fill:#1b4696"/></g><polygon id="T" points="318.21 0.89 318.21 3.25 321.85 3.25 321.85 13.4 324.34 13.4 324.34 3.29 328.04 3.29 328.04 0.89 318.21 0.89" style="fill:#1b4696"/><g id="k"><polygon id="k-2" data-name="k" points="323.68 80.72 305.32 80.72 284.26 56.04 284.26 80.87 269.36 80.87 269.36 1.49 284.26 1.49 284.26 47.23 305.32 24.13 317.83 24.13 295.36 48.64 323.68 80.72" style="fill:#1b4696"/></g><g id="n"><path d="M210.3,24.13h15V34.34a26.68,26.68,0,0,1,15.63-11.91c6.66-2,12.1,1.67,15.51,5.51a15.87,15.87,0,0,1,3.92,10.58V80.64h-15V42.55a8.1,8.1,0,0,0-3.1-6.54,5.06,5.06,0,0,0-3.26-1.1c-5.43.24-11.95,7.33-13.72,9.81V80.64h-15Z" style="fill:#1b4696"/></g><g id="i"><rect id="i-2" data-name="i" x="186.72" y="24.04" width="15.32" height="56.68" style="fill:#1b4696"/><circle id="i_dot" data-name="i dot" cx="194.57" cy="8.33" r="8.33" style="fill:#1b4696"/></g><g id="L"><polygon id="L-2" data-name="L" points="129.53 1.66 129.53 80.68 179.32 80.68 179.32 69.7 146.13 69.7 146.13 1.66 129.53 1.66" style="fill:#1b4696"/></g><g id="J"><path d="M98.51,1.66h24.13V57.5c.07,1,.71,12.11-8.11,19.16a25.38,25.38,0,0,1-16,5.6H69.91c-5.84-.41-12.42-.22-20.74-8.41-2.76-2.72-3.56-6.18-4.06-8.49a4.6,4.6,0,0,1-.11-1v-6H67.49c0,.4-.51,4.2,2.55,6.45a11,11,0,0,0,6.7,1.79H90.4a8.38,8.38,0,0,0,5.37-2,8.48,8.48,0,0,0,2.74-6Z" style="fill:#1b4696"/></g><g id="P-2" data-name="P"><circle id="P_Dot" data-name="P Dot" cx="54" cy="28.83" r="9" style="fill:#1b4696"/><path id="P-3" data-name="P" d="M88,9.83a26.41,26.41,0,0,0-16-9H0v80H24v-26H72a26.15,26.15,0,0,0,22-25v-4A26.2,26.2,0,0,0,88,9.83Zm-21,27-.06.06a10.4,10.4,0,0,1-7.38,2.94H15.35a10.5,10.5,0,0,1-7.76-3.31c-.2-.22-.4-.45-.59-.69a11.4,11.4,0,0,1-2.51-7.49,11.58,11.58,0,0,1,2.05-6.13,10.42,10.42,0,0,1,8.65-4.38H61.07a10,10,0,0,1,3.12.46A9,9,0,0,1,67,19.83c3.33,2.73,3.37,7,3.38,8.34A12.32,12.32,0,0,1,67,36.83Z" style="fill:#1b4696"/></g></g></g></g></svg>